<svg width="110" height="101" viewBox="0 0 110 101" fill="none" xmlns="http://www.w3.org/2000/svg">
<path d="M103.076 17.7311H79.159V11.2094C79.1558 8.32761 78.0095 5.56475 75.9718 3.52701C73.9341 1.48926 71.1712 0.34305 68.2894 0.339844H42.2024C39.3206 0.34305 36.5578 1.48926 34.52 3.52701C32.4823 5.56475 31.3361 8.32761 31.3329 11.2094V17.7311H7.42408C5.69499 17.733 4.03726 18.4208 2.8146 19.6434C1.59195 20.8661 0.904231 22.5238 0.902344 24.2529V93.8181C0.904231 95.5472 1.59195 97.2049 2.8146 98.4276C4.03726 99.6502 5.69499 100.338 7.42408 100.34H103.076C104.805 100.338 106.463 99.6502 107.686 98.4276C108.908 97.2049 109.596 95.5472 109.598 93.8181V24.2529C109.596 22.5238 108.908 20.8661 107.686 19.6434C106.463 18.4208 104.805 17.733 103.076 17.7311ZM35.6807 11.2094C35.6826 9.48033 36.3704 7.82262 37.593 6.59998C38.8157 5.37733 40.4734 4.6896 42.2024 4.68767H68.2894C70.0185 4.6896 71.6762 5.37733 72.8988 6.59998C74.1215 7.82262 74.8092 9.48033 74.8111 11.2094V17.7311H35.6807V11.2094ZM7.42408 22.079H103.076C103.653 22.0796 104.205 22.3088 104.613 22.7164C105.02 23.1239 105.25 23.6765 105.25 24.2529V48.1431C89.9778 56.713 72.7585 61.2125 55.2459 61.2094C37.7367 61.2124 20.5205 56.7147 5.25017 48.1479V24.2529C5.25078 23.6765 5.48002 23.1239 5.88757 22.7164C6.29513 22.3088 6.84771 22.0796 7.42408 22.079V22.079ZM103.076 95.992H7.42408C6.84771 95.9914 6.29513 95.7622 5.88757 95.3546C5.48002 94.9471 5.25078 94.3945 5.25017 93.8181V53.1138C20.6467 61.2887 37.8137 65.5614 55.2459 65.5572C72.6814 65.5615 89.8515 61.2872 105.25 53.1092V93.8181C105.25 94.3945 105.02 94.9471 104.613 95.3546C104.205 95.7622 103.653 95.9914 103.076 95.992ZM46.5503 45.992C46.5503 45.4155 46.7793 44.8625 47.187 44.4549C47.5947 44.0472 48.1476 43.8181 48.7242 43.8181H61.7677C62.3442 43.8181 62.8972 44.0471 63.3049 44.4548C63.7125 44.8625 63.9416 45.4155 63.9416 45.992C63.9416 46.5686 63.7125 47.1215 63.3049 47.5292C62.8972 47.9369 62.3442 48.1659 61.7677 48.1659H48.7242C48.1476 48.1659 47.5947 47.9369 47.187 47.5292C46.7793 47.1215 46.5503 46.5686 46.5503 45.992V45.992Z" fill="black"/>
</svg>
