<svg width="120" height="101" viewBox="0 0 120 101" fill="none" xmlns="http://www.w3.org/2000/svg">
<path d="M110 0.339844H10C4.83125 0.339844 0.625 4.54609 0.625 9.71484V72.2148C0.625 77.3836 4.83125 81.5898 10 81.5898H56.875V94.0898H35C33.275 94.0898 31.875 95.4898 31.875 97.2148C31.875 98.9398 33.275 100.34 35 100.34H85C86.725 100.34 88.125 98.9398 88.125 97.2148C88.125 95.4898 86.725 94.0898 85 94.0898H63.125V81.5898H110C115.169 81.5898 119.375 77.3836 119.375 72.2148V9.71484C119.375 4.54609 115.169 0.339844 110 0.339844ZM113.125 72.2148C113.125 73.9398 111.725 75.3398 110 75.3398H10C8.275 75.3398 6.875 73.9398 6.875 72.2148V9.71484C6.875 7.98984 8.275 6.58984 10 6.58984H110C111.725 6.58984 113.125 7.98984 113.125 9.71484V72.2148Z" fill="black"/>
</svg>
