<svg width="45" height="46" viewBox="0 0 45 46" fill="none" xmlns="http://www.w3.org/2000/svg">
<path fill-rule="evenodd" clip-rule="evenodd" d="M13.2238 0.635C15.6238 0.524995 16.3888 0.5 22.5 0.5C28.6125 0.5 29.3762 0.526243 31.7749 0.635C34.1712 0.743756 35.8075 1.12501 37.2387 1.68125C38.7399 2.24642 40.0997 3.13196 41.2237 4.27624C42.3681 5.40007 43.2538 6.76001 43.8187 8.26123C44.3749 9.69247 44.7549 11.3287 44.865 13.7237C44.975 16.1237 45 16.8887 45 22.9999C45 29.1111 44.9738 29.8761 44.865 32.2762C44.7562 34.671 44.3749 36.3074 43.8187 37.7386C43.2437 39.2175 42.4736 40.4736 41.2237 41.7235C40.0999 42.868 38.7399 43.7536 37.2387 44.3186C35.8075 44.8748 34.1712 45.2548 31.7764 45.3648C29.3762 45.4749 28.6112 45.4998 22.5 45.4998C16.3888 45.4998 15.6238 45.4737 13.2238 45.3648C10.8288 45.256 9.19259 44.8748 7.76135 44.3186C6.28259 43.7436 5.02636 42.9735 3.77637 41.7235C2.63188 40.5998 1.74628 39.2398 1.18137 37.7386C0.625129 36.3074 0.245126 34.671 0.135122 32.2762C0.0251174 29.8761 0.00012207 29.1123 0.00012207 22.9999C0.00012207 16.8875 0.0263651 16.1237 0.135122 13.725C0.243878 11.3287 0.625129 9.69247 1.18137 8.26123C1.74655 6.76011 2.63208 5.40024 3.77637 4.27624C4.90018 3.13175 6.26011 2.24616 7.76135 1.68125C9.19259 1.12501 10.8288 0.745004 13.2238 0.635V0.635ZM31.5925 4.68499C29.22 4.57748 28.5075 4.55373 22.5 4.55373C16.4926 4.55373 15.7801 4.57748 13.4076 4.68499C11.2138 4.78499 10.0226 5.15123 9.23008 5.45999C8.18009 5.86748 7.43009 6.35497 6.64259 7.14247C5.85636 7.92997 5.3676 8.67997 4.96011 9.72996C4.65135 10.5225 4.28511 11.7137 4.18511 13.9075C4.0776 16.28 4.05385 16.9924 4.05385 22.9999C4.05385 29.0074 4.0776 29.7198 4.18511 32.0923C4.28511 34.2861 4.65135 35.4774 4.96011 36.27C5.32056 37.2473 5.89549 38.1313 6.64259 38.8575C7.36852 39.6045 8.25271 40.1794 9.23008 40.5398C10.0226 40.8487 11.2138 41.2148 13.4076 41.3149C15.7801 41.4225 16.4913 41.4462 22.5 41.4462C28.5088 41.4462 29.22 41.4225 31.5925 41.3149C33.7862 41.2148 34.9775 40.8487 35.7701 40.5398C36.82 40.1324 37.5701 39.645 38.3576 38.8575C39.1046 38.1315 39.6796 37.2473 40.04 36.27C40.3488 35.4774 40.715 34.2861 40.815 32.0923C40.9226 29.7198 40.9463 29.0074 40.9463 22.9999C40.9463 16.9924 40.9226 16.28 40.815 13.9075C40.715 11.7137 40.3488 10.5225 40.04 9.72996C39.6325 8.67997 39.1451 7.92997 38.3576 7.14247C37.5701 6.35624 36.82 5.86748 35.7701 5.45999C34.9775 5.15123 33.7862 4.78499 31.5925 4.68499V4.68499ZM19.6272 29.9358C20.5381 30.3132 21.5141 30.5073 22.5 30.5073C24.4913 30.5073 26.4007 29.7164 27.8086 28.3085C29.2167 26.9006 30.0077 24.991 30.0077 22.9999C30.0077 21.0089 29.2167 19.0993 27.8086 17.6913C26.4007 16.2834 24.4913 15.4924 22.5 15.4924C21.5141 15.4924 20.5381 15.6866 19.6272 16.0639C18.7162 16.4412 17.8886 16.9942 17.1915 17.6913C16.4944 18.3885 15.9414 19.216 15.5641 20.1269C15.1868 21.0377 14.9926 22.014 14.9926 22.9999C14.9926 23.9858 15.1868 24.9621 15.5641 25.873C15.9414 26.7838 16.4944 27.6114 17.1915 28.3085C17.8886 29.0056 18.7162 29.5587 19.6272 29.9358V29.9358ZM14.3224 14.8222C16.4913 12.6534 19.4329 11.4349 22.5 11.4349C25.5674 11.4349 28.509 12.6534 30.6777 14.8222C32.8465 16.9911 34.065 19.9328 34.065 22.9999C34.065 26.0671 32.8465 29.0086 30.6777 31.1776C28.509 33.3464 25.5674 34.5649 22.5 34.5649C19.4329 34.5649 16.4913 33.3464 14.3224 31.1776C12.1536 29.0086 10.9351 26.0671 10.9351 22.9999C10.9351 19.9328 12.1536 16.9911 14.3224 14.8222V14.8222ZM36.6294 13.158C37.142 12.6453 37.43 11.95 37.43 11.225C37.43 10.4999 37.142 9.80458 36.6294 9.29191C36.1166 8.77923 35.4213 8.49122 34.6962 8.49122C33.9713 8.49122 33.2759 8.77923 32.7633 9.29191C32.2505 9.80458 31.9625 10.4999 31.9625 11.225C31.9625 11.95 32.2505 12.6453 32.7633 13.158C33.2759 13.6707 33.9713 13.9587 34.6962 13.9587C35.4213 13.9587 36.1166 13.6707 36.6294 13.158Z" fill="#878787"/>
</svg>
