<svg width="45" height="46" viewBox="0 0 45 46" fill="none" xmlns="http://www.w3.org/2000/svg">
<path d="M19.4936 35.7449C19.0586 36.3599 18.6468 36.663 18.253 36.663C17.9905 36.663 17.8411 36.5093 17.7936 36.2043C17.7749 36.1412 17.7749 35.9018 17.7749 35.4418V27.4668H15.8136V36.0318C15.8136 36.7974 15.8786 37.3137 15.9868 37.6418C16.1824 38.1905 16.6186 38.4474 17.2511 38.4474C17.9724 38.4474 18.7136 38.0118 19.493 37.1168V38.2987H21.4574V27.4674H19.4936V35.7449Z" fill="#878787"/>
<path d="M8.68551 25.806H10.9943V38.2966H13.1768V25.806H15.528V23.7598H8.68551V25.806Z" fill="#878787"/>
<path d="M22.0505 16.334C22.6899 16.334 22.9961 15.8277 22.9961 14.8146V10.2096C22.9961 9.19773 22.6899 8.69336 22.0505 8.69336C21.4105 8.69336 21.1036 9.19773 21.1036 10.2096V14.8146C21.1042 15.8271 21.4105 16.334 22.0505 16.334Z" fill="#878787"/>
<path d="M27.1461 27.3329C26.4249 27.3329 25.7524 27.7279 25.1192 28.5079V23.7598H23.1561V38.2966H25.1192V37.2454C25.7742 38.0573 26.4486 38.4454 27.1461 38.4454C27.928 38.4454 28.453 38.0341 28.7155 37.2285C28.8461 36.7691 28.913 36.0479 28.913 35.046V30.7329C28.913 29.7079 28.8461 28.9916 28.7155 28.556C28.4524 27.7441 27.928 27.3329 27.1461 27.3329ZM26.9505 35.1998C26.9505 36.1779 26.6624 36.6604 26.0967 36.6604C25.7742 36.6604 25.4467 36.5066 25.1186 36.1785V29.576C25.4467 29.2529 25.7736 29.0991 26.0967 29.0991C26.663 29.0991 26.9505 29.6004 26.9505 30.5773V35.1998Z" fill="#878787"/>
<path d="M33.3968 27.334C32.3955 27.334 31.613 27.7034 31.0468 28.4452C30.6293 28.9921 30.4399 29.8384 30.4399 30.9952V34.7902C30.4399 35.9402 30.6536 36.7959 31.0705 37.3365C31.6374 38.0759 32.4186 38.4459 33.4461 38.4459C34.4711 38.4459 35.2755 38.0577 35.8193 37.2727C36.0568 36.9234 36.2118 36.5302 36.2774 36.0959C36.2949 35.899 36.3193 35.4627 36.3193 34.8315V34.544H34.3161C34.3161 35.3315 34.2918 35.7671 34.2736 35.874C34.1618 36.3984 33.8793 36.6609 33.3968 36.6609C32.723 36.6609 32.3955 36.1609 32.3955 35.1584V33.2384H36.3199V30.9946C36.3199 29.8371 36.123 28.9915 35.7124 28.4446C35.163 27.7027 34.3818 27.334 33.3968 27.334V27.334ZM34.3574 31.6052H32.3955V30.6034C32.3955 29.6021 32.723 29.1009 33.3793 29.1009C34.0286 29.1009 34.3574 29.6021 34.3574 30.6034V31.6052Z" fill="#878787"/>
<path d="M40.6249 0.5H4.37488C1.96863 0.5 -0.00012207 2.46875 -0.00012207 4.875V41.125C-0.00012207 43.5312 1.96863 45.5 4.37488 45.5H40.6249C43.0311 45.5 44.9999 43.5312 44.9999 41.125V4.875C44.9999 2.46875 43.0311 0.5 40.6249 0.5ZM26.6124 7.04375H28.5893V15.1012C28.5893 15.5675 28.5893 15.8094 28.6136 15.8731C28.6574 16.1806 28.8124 16.3375 29.0786 16.3375C29.4749 16.3375 29.8918 16.03 30.3311 15.4088V7.04375H32.3149V17.9875H30.3311V16.7937C29.5418 17.6994 28.7886 18.1394 28.0655 18.1394C27.4268 18.1394 26.9861 17.88 26.788 17.325C26.6786 16.9944 26.6124 16.47 26.6124 15.6975V7.04375ZM19.1205 10.6112C19.1205 9.44187 19.3199 8.58625 19.7418 8.03312C20.2905 7.28562 21.063 6.91125 22.0505 6.91125C23.0443 6.91125 23.8155 7.28562 24.3649 8.03312C24.7799 8.58625 24.9805 9.44187 24.9805 10.6112V14.4456C24.9805 15.6081 24.7805 16.4706 24.3649 17.02C23.8155 17.7656 23.0449 18.14 22.0505 18.14C21.0624 18.14 20.2899 17.7656 19.7418 17.02C19.3199 16.4706 19.1205 15.6081 19.1205 14.4456V10.6112ZM13.8168 3.30125L15.3786 9.06812L16.878 3.30125H19.1018L16.4568 12.04V17.9875H14.2568V12.04C14.058 10.985 13.618 9.44125 12.913 7.39312C12.4493 6.03062 11.9661 4.66188 11.503 3.30125H13.8168ZM38.1705 38.9487C37.7743 40.6756 36.3605 41.9494 34.6605 42.1388C30.633 42.5888 26.5574 42.5913 22.4999 42.5888C18.4418 42.5913 14.3661 42.5888 10.3393 42.1388C8.63863 41.9488 7.22738 40.675 6.8305 38.9487C6.26488 36.4887 6.26488 33.8038 6.26488 31.2725C6.26488 28.7388 6.27113 26.0556 6.83738 23.595C7.23363 21.8687 8.6455 20.5956 10.3461 20.4056C14.373 19.9544 18.4486 19.9531 22.5068 19.9544C26.5643 19.9531 30.6399 19.9544 34.6674 20.4056C36.3668 20.5956 37.7799 21.8687 38.1768 23.595C38.7424 26.0562 38.7393 28.7388 38.7393 31.2725C38.7399 33.8038 38.7368 36.4887 38.1705 38.9487V38.9487Z" fill="#878787"/>
</svg>
