<svg width="65" height="65" viewBox="0 0 65 65" fill="none" xmlns="http://www.w3.org/2000/svg">
<path d="M45.8069 22.3341C45.5293 21.6149 45.104 20.9619 44.5586 20.417C44.0132 19.8722 43.3597 19.4476 42.6403 19.1707C41.6496 18.8038 40.6033 18.6099 39.5469 18.5974C37.7903 18.5174 37.2636 18.4974 32.8136 18.4974C28.3636 18.4974 27.8369 18.5174 26.0803 18.5974C25.0228 18.6095 23.9753 18.8034 22.9836 19.1707C22.2644 19.4484 21.6114 19.8736 21.0666 20.419C20.5217 20.9644 20.0972 21.6179 19.8203 22.3374C19.4534 23.328 19.2594 24.3744 19.2469 25.4307C19.1669 27.1874 19.1469 27.7141 19.1469 32.1641C19.1469 36.6141 19.1669 37.1407 19.2469 38.8974C19.259 39.9549 19.453 41.0023 19.8203 41.9941C20.098 42.7132 20.5232 43.3663 21.0686 43.9111C21.614 44.4559 22.2675 44.8805 22.9869 45.1574C23.9776 45.5243 25.0239 45.7182 26.0803 45.7307C27.8369 45.8107 28.3636 45.8274 32.8136 45.8274C37.2636 45.8274 37.7903 45.8107 39.5469 45.7274C40.6042 45.7163 41.6517 45.5235 42.6436 45.1574C43.3628 44.8797 44.0158 44.4545 44.5606 43.9091C45.1055 43.3637 45.53 42.7102 45.8069 41.9907C46.1739 41.0001 46.3678 39.9537 46.3803 38.8974C46.4603 37.1407 46.4769 36.6141 46.4769 32.1641C46.4769 27.7141 46.4603 27.1874 46.3769 25.4307C46.3659 24.3735 46.1731 23.326 45.8069 22.3341V22.3341ZM32.8136 40.7241C31.1206 40.7241 29.4656 40.222 28.0579 39.2814C26.6502 38.3408 25.5531 37.004 24.9052 35.4398C24.2573 33.8757 24.0878 32.1546 24.4181 30.4941C24.7484 28.8336 25.5636 27.3084 26.7608 26.1112C27.9579 24.9141 29.4832 24.0988 31.1436 23.7685C32.8041 23.4382 34.5252 23.6078 36.0894 24.2556C37.6535 24.9035 38.9904 26.0007 39.931 27.4084C40.8716 28.8161 41.3736 30.471 41.3736 32.1641C41.3736 34.4343 40.4718 36.6116 38.8664 38.2169C37.2611 39.8222 35.0839 40.7241 32.8136 40.7241ZM41.7103 25.2674C41.3147 25.2674 40.928 25.1501 40.5991 24.9303C40.2702 24.7106 40.0139 24.3982 39.8625 24.0328C39.7111 23.6673 39.6715 23.2652 39.7487 22.8772C39.8259 22.4892 40.0164 22.1329 40.2961 21.8532C40.5758 21.5735 40.9321 21.383 41.3201 21.3058C41.7081 21.2286 42.1102 21.2683 42.4756 21.4196C42.8411 21.571 43.1534 21.8274 43.3732 22.1562C43.593 22.4851 43.7103 22.8718 43.7103 23.2674C43.7103 23.7978 43.4996 24.3065 43.1245 24.6816C42.7494 25.0567 42.2407 25.2674 41.7103 25.2674V25.2674ZM38.3703 32.1641C38.3703 33.2631 38.0444 34.3374 37.4338 35.2512C36.8232 36.165 35.9554 36.8772 34.9401 37.2977C33.9247 37.7183 32.8074 37.8284 31.7296 37.614C30.6517 37.3995 29.6616 36.8703 28.8845 36.0932C28.1073 35.3161 27.5781 34.326 27.3637 33.2481C27.1493 32.1702 27.2593 31.053 27.6799 30.0376C28.1005 29.0223 28.8127 28.1544 29.7265 27.5439C30.6403 26.9333 31.7146 26.6074 32.8136 26.6074C34.2873 26.6074 35.7007 27.1928 36.7428 28.2349C37.7848 29.277 38.3703 30.6903 38.3703 32.1641V32.1641ZM32.8136 0.164062C26.4846 0.164063 20.2977 2.04083 15.0354 5.55703C9.77299 9.07324 5.67147 14.071 3.24947 19.9182C0.827464 25.7654 0.193757 32.1996 1.42848 38.4069C2.66321 44.6143 5.71091 50.3162 10.1862 54.7915C14.6615 59.2667 20.3633 62.3145 26.5707 63.5492C32.7781 64.7839 39.2122 64.1502 45.0595 61.7282C50.9067 59.3062 55.9044 55.2047 59.4206 49.9423C62.9368 44.6799 64.8136 38.4931 64.8136 32.1641C64.8136 23.6771 61.4422 15.5378 55.441 9.53664C49.4399 3.53548 41.3005 0.164063 32.8136 0.164063V0.164062ZM49.3803 39.0341C49.352 40.4172 49.0894 41.7854 48.6036 43.0807C48.1755 44.1876 47.5209 45.1929 46.6817 46.0321C45.8425 46.8713 44.8372 47.526 43.7303 47.9541C42.4361 48.4395 41.0689 48.7021 39.6869 48.7307C37.9069 48.8107 37.3403 48.8307 32.8136 48.8307C28.2869 48.8307 27.7203 48.8107 25.9403 48.7307C24.5583 48.7021 23.1912 48.4395 21.8969 47.9541C20.79 47.526 19.7847 46.8713 18.9455 46.0321C18.1063 45.1929 17.4517 44.1876 17.0236 43.0807C16.5381 41.7865 16.2755 40.4194 16.2469 39.0374C16.1669 37.2574 16.1469 36.6907 16.1469 32.1641C16.1469 27.6374 16.1669 27.0707 16.2469 25.2907C16.2745 23.9089 16.536 22.5418 17.0203 21.2474C17.4483 20.1395 18.1033 19.1334 18.9431 18.2936C19.7829 17.4537 20.7891 16.7988 21.8969 16.3707C23.1914 15.8864 24.5585 15.6249 25.9403 15.5974C27.7203 15.5174 28.2869 15.4974 32.8136 15.4974C37.3403 15.4974 37.9069 15.5174 39.6869 15.5974C41.0687 15.6249 42.4359 15.8864 43.7303 16.3707C44.8375 16.7992 45.843 17.4543 46.6822 18.2941C47.5215 19.1339 48.1759 20.1398 48.6036 21.2474C49.0891 22.5416 49.3517 23.9087 49.3803 25.2907C49.4603 27.0707 49.4803 27.6374 49.4803 32.1641C49.4803 36.6907 49.4603 37.2574 49.3803 39.0374V39.0341Z" fill="#C80092"/>
</svg>
