<svg width="65" height="65" viewBox="0 0 65 65" fill="none" xmlns="http://www.w3.org/2000/svg">
<path d="M32.8135 0.164062C15.142 0.164062 0.813477 14.4926 0.813477 32.1641C0.813477 49.8355 15.142 64.1641 32.8135 64.1641C50.4849 64.1641 64.8135 49.8355 64.8135 32.1641C64.8135 14.4926 50.4849 0.164062 32.8135 0.164062ZM48.192 24.2855C48.2135 24.6212 48.2135 24.9712 48.2135 25.3141C48.2135 35.7998 40.2278 47.8784 25.6349 47.8784C21.1349 47.8784 16.9635 46.5712 13.4492 44.3212C14.092 44.3926 14.7063 44.4212 15.3635 44.4212C19.0778 44.4212 22.492 43.1641 25.2135 41.0355C21.7278 40.9641 18.7992 38.6784 17.7992 35.5355C19.0206 35.7141 20.1206 35.7141 21.3778 35.3926C19.583 35.028 17.9697 34.0532 16.8122 32.6339C15.6546 31.2147 15.0241 29.4384 15.0278 27.6069V27.5069C16.0778 28.0998 17.3135 28.4641 18.6063 28.5141C17.5195 27.7897 16.6282 26.8084 16.0114 25.6571C15.3947 24.5058 15.0715 23.2202 15.0706 21.9141C15.0706 20.4355 15.4563 19.0855 16.1492 17.9141C18.1414 20.3665 20.6273 22.3722 23.4454 23.801C26.2635 25.2297 29.3507 26.0494 32.5063 26.2069C31.3849 20.8141 35.4135 16.4498 40.2563 16.4498C42.5421 16.4498 44.5992 17.4069 46.0492 18.9498C47.842 18.6141 49.5563 17.9426 51.0849 17.0426C50.492 18.8783 49.2492 20.4283 47.5992 21.4069C49.1992 21.2355 50.7421 20.7926 52.1706 20.1712C51.0921 21.7569 49.742 23.1641 48.192 24.2855V24.2855Z" fill="#DEDEDE"/>
</svg>
