<svg width="45" height="46" viewBox="0 0 45 46" fill="none" xmlns="http://www.w3.org/2000/svg">
<path d="M40.1784 0.5H4.82141C2.15959 0.5 0 2.65959 0 5.32141V40.6784C0 43.3403 2.15959 45.4998 4.82141 45.4998H40.1784C42.8403 45.4998 44.9998 43.3403 44.9998 40.6784V5.32141C44.9998 2.65959 42.8403 0.5 40.1784 0.5ZM35.2666 16.4508C35.2867 16.7321 35.2867 17.0234 35.2867 17.3046C35.2867 26.0133 28.6573 36.0479 16.5435 36.0479C12.8069 36.0479 9.34149 34.9631 6.42855 33.0948C6.96091 33.155 7.47319 33.1751 8.0156 33.1751C11.0993 33.1751 13.9319 32.1305 16.1919 30.3626C13.2991 30.3024 10.8683 28.4039 10.0346 25.7923C11.0491 25.943 11.9631 25.943 13.0078 25.6718C9.99439 25.0591 7.73435 22.4073 7.73435 19.2031V19.1227C8.60823 19.6149 9.63278 19.9162 10.7076 19.9564C9.80397 19.3554 9.06323 18.54 8.55145 17.583C8.03966 16.6261 7.77275 15.5573 7.77453 14.4721C7.77453 13.2466 8.09596 12.1216 8.6685 11.1473C11.9129 15.145 16.7845 17.7566 22.2488 18.0379C21.3147 13.568 24.6595 9.94193 28.6774 9.94193C30.5758 9.94193 32.2834 10.7355 33.4887 12.0212C34.9753 11.7399 36.4017 11.1875 37.6673 10.4341C37.1751 11.9609 36.1405 13.2466 34.7744 14.0602C36.1003 13.9196 37.386 13.5479 38.5713 13.0357C37.6773 14.3515 36.5523 15.5167 35.2666 16.4508Z" fill="#878787"/>
</svg>
