<svg width="45" height="46" viewBox="0 0 45 46" fill="none" xmlns="http://www.w3.org/2000/svg">
<path d="M8.21673 0.5C3.66502 0.5 0 4.16502 0 8.71673V37.2833C0 41.835 3.66502 45.5 8.21673 45.5H23.6996V27.9078H19.0477V21.5741H23.6996V16.1628C23.6996 11.9115 26.4481 8.00798 32.7797 8.00798C35.3433 8.00798 37.2389 8.25409 37.2389 8.25409L37.0899 14.1688C37.0899 14.1688 35.1565 14.1505 33.0469 14.1505C30.7636 14.1505 30.3975 15.2025 30.3975 16.949V21.5741H37.2713L36.9717 27.9079H30.3975V45.5001H36.7833C41.335 45.5001 45 41.8351 45 37.2834V8.71678C45 4.16507 41.335 0.500045 36.7833 0.500045H8.21669L8.21673 0.5Z" fill="#878787"/>
</svg>
