<svg width="65" height="65" viewBox="0 0 65 65" fill="none" xmlns="http://www.w3.org/2000/svg">
<path fill-rule="evenodd" clip-rule="evenodd" d="M0.813599 32.3427C0.813599 48.2534 12.3691 61.4825 27.4803 64.1641V41.0529H19.4803V32.1641H27.4803V25.0529C27.4803 17.0529 32.6357 12.6085 39.9248 12.6085C42.2357 12.6085 44.7248 12.964 47.0357 13.3196V21.4974H42.9469C39.0357 21.4974 38.1469 23.4529 38.1469 25.9418V32.1641H46.6803L45.2581 41.0529H38.1469V64.1641C53.2581 61.4825 64.8136 48.2534 64.8136 32.3427C64.8136 14.6445 50.4136 0.164062 32.8136 0.164062C15.2136 0.164062 0.813599 14.6445 0.813599 32.3427H0.813599Z" fill="#1B61BD"/>
</svg>
