<svg width="65" height="65" viewBox="0 0 65 65" fill="none" xmlns="http://www.w3.org/2000/svg">
<path d="M38.1568 31.6074L30.6701 28.1141C30.0168 27.8107 29.4801 28.1507 29.4801 28.8741V35.4541C29.4801 36.1774 30.0168 36.5174 30.6701 36.2141L38.1535 32.7207C38.8101 32.4141 38.8101 31.9141 38.1568 31.6074ZM32.8135 0.164062C15.1401 0.164062 0.813477 14.4907 0.813477 32.1641C0.813477 49.8374 15.1401 64.1641 32.8135 64.1641C50.4868 64.1641 64.8135 49.8374 64.8135 32.1641C64.8135 14.4907 50.4868 0.164062 32.8135 0.164062ZM32.8135 45.1641C16.4335 45.1641 16.1468 43.6874 16.1468 32.1641C16.1468 20.6407 16.4335 19.1641 32.8135 19.1641C49.1935 19.1641 49.4801 20.6407 49.4801 32.1641C49.4801 43.6874 49.1935 45.1641 32.8135 45.1641Z" fill="#FA0006"/>
</svg>
