<svg width="101" height="101" viewBox="0 0 101 101" fill="none" xmlns="http://www.w3.org/2000/svg">
<path d="M0.265625 98.7755C0.265625 99.639 0.966452 100.34 1.82997 100.34H99.1667C99.3763 100.34 99.5797 100.299 99.7705 100.218C99.9614 100.136 100.133 100.021 100.277 99.8768C100.28 99.8737 100.284 99.8737 100.287 99.8705C100.296 99.8612 100.296 99.8424 100.309 99.833C100.468 99.6609 100.571 99.4513 100.643 99.2229C100.665 99.1509 100.675 99.0821 100.687 99.007C100.7 98.9288 100.734 98.86 100.734 98.7786C100.734 98.6535 100.69 98.544 100.662 98.4282C100.653 98.3844 100.672 98.3406 100.656 98.2968L90.7693 67.9016C90.6942 67.6669 90.5628 67.451 90.3876 67.279L36.8338 13.722C36.7774 13.6344 36.7368 13.5406 36.6617 13.4624L24.9635 1.76418C23.0644 -0.134935 19.9732 -0.134935 18.071 1.76418L1.69231 18.1429C0.772473 19.0627 0.265625 20.286 0.265625 21.5876C0.265625 22.8891 0.772473 24.1155 1.69231 25.0354L13.1308 36.4739C13.1871 36.5584 13.2247 36.6553 13.2998 36.7304L66.7691 90.5596C66.9537 90.7473 67.1789 90.8818 67.4324 90.9569L88.4353 97.2143H1.82997C0.966452 97.2112 0.265625 97.912 0.265625 98.7755V98.7755ZM20.1704 32.0781L69.2501 80.529L67.4449 86.7926L16.6193 35.6291L20.1704 32.0781ZM71.6498 78.5047L22.3792 29.8692L30.0038 22.2446L78.8333 71.2023V78.5047H71.6498ZM80.7825 68.7276L32.2158 20.0326L35.4665 16.7819L86.1857 67.5011L80.7825 68.7276ZM72.188 81.6334H80.3977C81.2612 81.6334 81.962 80.9326 81.962 80.0691V71.6685L88.2413 70.2418L96.7607 96.429L70.2044 88.5165L72.188 81.6334ZM3.39432 21.5876C3.39432 21.1214 3.57578 20.6865 3.90429 20.3549L20.283 3.97616C20.9619 3.29724 22.0663 3.29411 22.7515 3.97616L33.3015 14.5261L14.4574 33.3702L3.90742 22.8203C3.57578 22.4918 3.39432 22.0537 3.39432 21.5876V21.5876Z" fill="#1E1E1E"/>
</svg>
